<svg width="88" height="88" viewBox="0 0 88 88" xmlns="http://www.w3.org/2000/svg"><path d="M70.8341742 31.579374l-6.1264839 6.1580869 2.9062258 2.9212174-2.9062258 2.9193043L67.6139161 46.4992l-2.9062258 2.9212174 6.1264839 6.1580869 1.9393871-1.9493913-4.189-4.2086956L71.4907871 46.4992l-2.9062258-2.9212174 2.9062258-2.9193043-2.9062258-2.9212174 4.189-4.2086957zm-52.7197355 0l-1.939387 1.9493912 4.1909031 4.2086957-2.908129 2.9212174 2.908129 2.9193043-2.908129 2.9212174 2.908129 2.9212174-4.1909032 4.2086956 1.9393871 1.9493913 6.1283871-6.1580869L21.3366 46.4992l2.9062258-2.9212174L21.3366 40.6586783l2.9062258-2.9212174zm37.6667419 19.6180695l-11.3051612 8.6737391-11.3070646-8.6737391-1.652-18.3881739 8.9413549-5.6798261h8.0335161l8.9394516 5.6798261-1.6500968 18.3881739zM39.4001161 23.454487l-11.7257742 7.4474782 1.9964839 22.2372174 14.8051936 11.3539131 14.8032903-11.3539131 1.9964838-22.2372174-11.7257741-7.4474782H39.4001161z" fill="#FFF" fill-rule="evenodd"/></svg>